<svg height="30" viewBox="0 0 30 30" width="30" xmlns="http://www.w3.org/2000/svg" xmlns:xlink="http://www.w3.org/1999/xlink"><filter id="a"><feColorMatrix in="SourceGraphic" type="matrix" values="0 0 0 0 0.834086 0 0 0 0 0.839599 0 0 0 0 0.839451 0 0 0 1.000000 0"/></filter><g fill="none" fill-rule="evenodd" filter="url(#a)"><g fill="#F8ECD3" fill-rule="nonzero" transform="translate(5)"><path d="m14.6103896 10.8584416h.6272727l.3194806-.6155845c-.8238532-1.19019988-.9713383-2.72256988-.3896104-4.04805191l-.3584416-.54545454h-.8844156l4.9753247-4.98311688-.2688312-.66623377h-15.58441555l-.38961039.4948052 1.41428571 5.15454545h-.45974026l-.38961039.49480519c.14666828.51336508.22397777 1.04404891.22987013 1.57792208v.43246753c0 .81818182 0 1.52727273-.28051948 2.14285715l.35064935.561039h.4987013l-3.92727273 15.4051948c-.22690091.8961248-.02800523 1.8468137.53910254 2.5768222s1.43909199 1.157808 2.36349487 1.1595414h12.6584416c.9249602 0 1.7979779-.4275933 2.3654266-1.1580407s.7657045-1.6820396.5371708-2.5783229zm-.3896104-4.42987017c-.3642685 1.21222763-.2528071 2.51771853.3116883 3.65064937h-10.4337662c.14090198-.63913863.19204322-1.29479558.15194805-1.94805197 0-.13636364 0-.27662338 0-.42077922-.00267276-.43481503-.049669-.86822474-.14025974-1.29350649zm-10.68311686-5.64935065h14.13506496l-4.8584416 4.87012987h-7.93246752zm13.87012986 27.58441562c-.4196911.5423618-1.0674673.8590524-1.7532467.8571514h-12.6584416c-.68371793-.0006188-1.32890302-.3166816-1.7484545-.85654-.41955148-.5398585-.56652494-1.2431068-.39829875-1.9058062l3.9974026-15.5844156h8.96103895l3.9974026 15.5844156c.170706.6623168.0238515 1.3663543-.3974026 1.9051948z"/><path d="m13.3792208 12.4168831 3.4207792 13.3441559c.1658935.6549108.0201758 1.3497299-.3948631 1.8828074s-1.0529184.8447135-1.7285135.8444654h-10.62857145c-.67491091-.0009529-1.31166972-.3130948-1.7258145-.8460016-.41414478-.5329069-.55939231-1.2270232-.39366602-1.8812712l3.42077922-13.3441559z"/></g></g></svg>